<?xml version="1.0" ?><!DOCTYPE svg  PUBLIC '-//W3C//DTD SVG 1.1//EN'  'http://www.w3.org/Graphics/SVG/1.1/DTD/svg11.dtd'><svg enable-background="new 0 0 128 128" id="Layer_1" version="1.1" viewBox="0 0 128 128" xml:space="preserve" xmlns="http://www.w3.org/2000/svg" xmlns:xlink="http://www.w3.org/1999/xlink"><circle cx="64" cy="64" fill="#4B5F83" id="circle" r="64"/><g id="icon"><path d="M94,64c0,16.6-13.4,30-30,30S34,80.6,34,64s13.4-30,30-30S94,47.4,94,64z M64,38   c-14.4,0-26,11.6-26,26s11.6,26,26,26s26-11.6,26-26S78.4,38,64,38z" fill="#FFFFFF" id="circle_1_"/><path d="M64,76L64,76c-1.1,0-2-0.9-2-2V54c0-1.1,0.9-2,2-2h0c1.1,0,2,0.9,2,2v20C66,75.1,65.1,76,64,76z" fill="#FFFFFF" id="line"/></g></svg>