<?xml version="1.0" ?><!DOCTYPE svg  PUBLIC '-//W3C//DTD SVG 1.1//EN'  'http://www.w3.org/Graphics/SVG/1.1/DTD/svg11.dtd'><svg height="140px" id="Layer_1" style="enable-background:new 0 0 140 140;" version="1.1" viewBox="0 0 140 140" width="140px" xml:space="preserve" xmlns="http://www.w3.org/2000/svg" xmlns:xlink="http://www.w3.org/1999/xlink"><g><path d="M70,130c-33.084,0-60-26.916-60-60s26.916-60,60-60s60,26.916,60,60S103.084,130,70,130z" style="fill:#F2F2F2;"/><circle cx="70" cy="70" r="58.064" style="fill:#F5DD9E;"/><g><path d="M46.774,78.71c-0.203,0-0.408-0.063-0.582-0.195c-0.427-0.322-0.512-1.236-0.19-1.664    c0.617-0.817,3.986-5.184,10.053-5.184c0.038,0,0.076,0,0.114,0c0.535,0,0.964,0.748,0.96,1.283    c-0.004,0.531-0.437,1.113-0.968,1.113c-0.029-0.002-0.068,0.076-0.103,0.076c-5.262,0-8.192,3.723-8.511,4.146    C47.357,78.538,47.067,78.71,46.774,78.71z" style="fill:#754C24;"/><path d="M92.533,109.667H60.085c-0.274,0-0.536-0.111-0.719-0.314c-0.184-0.202-0.272-0.474-0.243-0.746    c0,0,2.69-25.619,3.671-35.172c0.395-3.84,1.954-7.494,4.306-10.131c-0.348-0.986-0.524-2.014-0.524-3.063    c0-4.64,3.878-16.083,9.732-16.083c5.854,0,9.731,11.478,9.731,16.13c0,1.098-0.189,2.194-0.553,3.209    c2.408,2.723,3.942,6.3,4.336,10.146c0.98,9.551,3.672,34.968,3.672,34.968c0.029,0.272-0.06,0.54-0.242,0.744    C93.068,109.556,92.808,109.667,92.533,109.667z" style="fill:#1C0D1A;"/><path d="M89.355,108.667c-2.904-2-4.645-27.846-5.345-34.66c-0.269-2.621-1.312-5.109-2.862-6.848    c0,0-2.439-2.971-4.375-2.971c0-0.97,3.871-1.935,3.871-3.869c0-2.948-2.066-10.125-4.354-10.125    c-2.288,0-4.355,7.179-4.355,10.127c0,1.936,3.871,2.904,3.871,3.871c-1.936,0-4.375,2.978-4.375,2.978    c-1.55,1.737-2.593,4.216-2.862,6.837c-0.7,6.815-2.44,32.66-5.344,34.66H89.355L89.355,108.667z" style="fill:#1A1A1A;"/><path d="M96.635,44.172c0-0.001,0.096-0.002,0.094-0.004c-11.23-13.304-42.711-12.603-50.188-11.147    c-0.448,0.088-0.652,0.646-0.678,0.646h-0.228v10h0.917c-0.025,0-0.053,0.271-0.053,0.363c0,0.535,0.433,1.02,0.967,1.02    c1.923,0,5.196-0.621,9.338-1.438c11.604-2.287,31.022-6.102,38.625,1.882c0.058,0.062,0.131,0.1,0.199,0.144    c0.04,0.024-0.175,0.063-0.134,0.082c0.125,0.055,0.142,0.084,0.142,0.084v0.002c0,0,0.478-0.021,0.586-0.063    c0.036-0.015,0.19-0.039,0.224-0.058c0.063-0.031,0.188-0.058,0.244-0.104c0.008-0.007,0.043-0.018,0.049-0.023    c0.008-0.008,0.035-0.01,0.043-0.018c0.043-0.039,0.069-0.09,0.102-0.134c0.038-0.052,0.086-0.099,0.113-0.156    s0.037-0.116,0.053-0.177s0.038-0.118,0.041-0.182c0.003-0.062-0.012-0.119-0.02-0.182s-0.01-0.124-0.031-0.184    c-0.02-0.061-0.057-0.11-0.09-0.166c-0.027-0.047-0.14-0.101-0.176-0.146C96.76,44.2,96.635,44.187,96.635,44.172    C96.635,44.173,96.635,44.172,96.635,44.172z" style="fill:#E6E6E6;"/><path d="M46.704,35.972c7.336-1.351,36.64-2.166,50.289,8.363c-0.016-0.025-0.027,0-0.043-0.027    c-0.027-0.048-0.14-0.072-0.176-0.117c-0.014-0.016-0.139-0.002-0.139-0.017c0-0.001,0-0.002,0-0.002    c0-0.001,0.096-0.002,0.094-0.004c-11.23-13.304-42.711-12.603-50.188-11.147c-0.448,0.088-0.652,0.646-0.678,0.646h-0.228v3    h0.231C45.894,35.667,46.231,36.058,46.704,35.972z" style="fill:#CCCCCC;"/><path d="M46.635,107.742c-0.535,0-1-0.434-1-0.968V34.192c0-0.534,0.465-0.967,1-0.967    c0.534,0,1,0.433,1,0.967v72.582C47.635,107.31,47.169,107.742,46.635,107.742z" style="fill:#603813;"/></g></g></svg>