<?xml version="1.0" encoding="UTF-8"?>
<!-- Created with Inkscape (http://www.inkscape.org/) -->
<svg width="120" height="120" version="1.1" viewBox="0 0 31.75 31.75" xmlns="http://www.w3.org/2000/svg" xmlns:cc="http://creativecommons.org/ns#" xmlns:dc="http://purl.org/dc/elements/1.1/" xmlns:rdf="http://www.w3.org/1999/02/22-rdf-syntax-ns#">
 <metadata>
  <rdf:RDF>
   <cc:Work rdf:about="">
    <dc:format>image/svg+xml</dc:format>
    <dc:type rdf:resource="http://purl.org/dc/dcmitype/StillImage"/>
    <dc:title/>
   </cc:Work>
  </rdf:RDF>
 </metadata>
 <g transform="translate(-91.154 -155.45)">
  <g transform="matrix(.26458 0 0 .26458 88.508 152.8)">
   <path d="m70 130c-33.084 0-60-26.916-60-60s26.916-60 60-60 60 26.916 60 60-26.916 60-60 60z" fill="#f2f2f2"/>
   <circle cx="70" cy="70" r="58.064" fill="#f5dd9e"/>
   <path d="m46.774 78.71c-0.203 0-0.408-0.063-0.582-0.195-0.427-0.322-0.512-1.236-0.19-1.664 0.617-0.817 3.986-5.184 10.053-5.184h0.114c0.535 0 0.964 0.748 0.96 1.283-4e-3 0.531-0.437 1.113-0.968 1.113-0.029-2e-3 -0.068 0.076-0.103 0.076-5.262 0-8.192 3.723-8.511 4.146-0.19 0.253-0.48 0.425-0.773 0.425z" fill="#754c24"/>
   <path d="m92.533 109.67h-32.448c-0.274 0-0.536-0.111-0.719-0.314-0.184-0.202-0.272-0.474-0.243-0.746 0 0 2.69-25.619 3.671-35.172 0.395-3.84 1.954-7.494 4.306-10.131-0.348-0.986-0.524-2.014-0.524-3.063 0-4.64 3.878-16.083 9.732-16.083s9.731 11.478 9.731 16.13c0 1.098-0.189 2.194-0.553 3.209 2.408 2.723 3.942 6.3 4.336 10.146 0.98 9.551 3.672 34.968 3.672 34.968 0.029 0.272-0.06 0.54-0.242 0.744-0.184 0.201-0.444 0.312-0.719 0.312z" fill="#1c0d1a"/>
   <path d="m89.355 108.67c-2.904-2-4.645-27.846-5.345-34.66-0.269-2.621-1.312-5.109-2.862-6.848 0 0-2.439-2.971-4.375-2.971 0-0.97 3.871-1.935 3.871-3.869 0-2.948-2.066-10.125-4.354-10.125s-4.355 7.179-4.355 10.127c0 1.936 3.871 2.904 3.871 3.871-1.936 0-4.375 2.978-4.375 2.978-1.55 1.737-2.593 4.216-2.862 6.837-0.7 6.815-2.44 32.66-5.344 34.66z" fill="#1a1a1a"/>
   <path d="m96.635 44.172c0-1e-3 0.096-2e-3 0.094-4e-3 -11.23-13.304-42.711-12.603-50.188-11.147-0.448 0.088-0.652 0.646-0.678 0.646h-0.228v10h0.917c-0.025 0-0.053 0.271-0.053 0.363 0 0.535 0.433 1.02 0.967 1.02 1.923 0 5.196-0.621 9.338-1.438 11.604-2.287 31.022-6.102 38.625 1.882 0.058 0.062 0.131 0.1 0.199 0.144 0.04 0.024-0.175 0.063-0.134 0.082 0.125 0.055 0.142 0.084 0.142 0.084v2e-3s0.478-0.021 0.586-0.063c0.036-0.015 0.19-0.039 0.224-0.058 0.063-0.031 0.188-0.058 0.244-0.104 8e-3 -7e-3 0.043-0.018 0.049-0.023 8e-3 -8e-3 0.035-0.01 0.043-0.018 0.043-0.039 0.069-0.09 0.102-0.134 0.038-0.052 0.086-0.099 0.113-0.156s0.037-0.116 0.053-0.177 0.038-0.118 0.041-0.182c3e-3 -0.062-0.012-0.119-0.02-0.182s-0.01-0.124-0.031-0.184c-0.02-0.061-0.057-0.11-0.09-0.166-0.027-0.047-0.14-0.101-0.176-0.146-0.014-0.013-0.139-0.026-0.139-0.041v0z" fill="#e6e6e6"/>
   <path d="m46.704 35.972c7.336-1.351 36.64-2.166 50.289 8.363-0.016-0.025-0.027 0-0.043-0.027-0.027-0.048-0.14-0.072-0.176-0.117-0.014-0.016-0.139-2e-3 -0.139-0.017v-2e-3c0-1e-3 0.096-2e-3 0.094-4e-3 -11.23-13.304-42.711-12.603-50.188-11.147-0.448 0.088-0.652 0.646-0.678 0.646h-0.228v3h0.231c0.028-1 0.365-0.609 0.838-0.695z" fill="#ccc"/>
   <path d="m46.635 107.74c-0.535 0-1-0.434-1-0.968v-72.582c0-0.534 0.465-0.967 1-0.967 0.534 0 1 0.433 1 0.967v72.582c0 0.536-0.466 0.968-1 0.968z" fill="#603813"/>
  </g>
 </g>
</svg>
