<?xml version="1.0" encoding="iso-8859-1"?>
<!-- Generator: Adobe Illustrator 19.0.0, SVG Export Plug-In . SVG Version: 6.00 Build 0)  -->
<svg version="1.1" id="Layer_1" xmlns="http://www.w3.org/2000/svg" xmlns:xlink="http://www.w3.org/1999/xlink" x="0px" y="0px"
	 viewBox="0 0 512 512" style="enable-background:new 0 0 512 512;" xml:space="preserve">
<circle style="fill:#00A652;" cx="255.996" cy="255.996" r="255.996"/>
<path style="fill:#008C49;" d="M512,255.999c0-17.086-1.689-33.775-4.881-49.923L341.354,40.312H170.646v161.9H121.59v23.377
	l31.97,28.838c-8.639,3.619-14.31,12.602-13.253,22.362l1.898,17.516c0.727,6.715,4.491,12.393,9.769,15.835
	c1.568,2.406,3.598,4.467,5.944,6.082v42.076l17.008,12.788v12.365l25.577,19.698c-0.102,0.007-0.206,0.013-0.308,0.021
	c-0.282,0.01-0.554,0.031-0.836,0.063c-0.585,0.042-1.181,0.094-1.776,0.157c-0.042,0-0.084,0.01-0.115,0.01
	c-0.742,0.084-1.473,0.167-2.215,0.261c-0.648,0.084-1.296,0.167-1.943,0.272c-0.188,0.021-0.376,0.052-0.564,0.084
	c-0.648,0.104-1.296,0.209-1.943,0.334c-35.254,6.332-63.592,33.3-71.93,67.844c2.291,1.458,4.613,2.87,6.953,4.256
	c0,0.001-0.001,0.002-0.001,0.003C163.966,499.028,208.465,512,256.001,512C397.385,512,512,397.385,512,255.999z"/>
<path style="fill:#3C3B41;" d="M393.13,472.197c-21.932,13.949-46.132,24.649-71.93,31.42c-20.814,5.465-42.663,8.38-65.201,8.38
	s-44.387-2.915-65.201-8.38c-25.798-6.771-49.998-17.47-71.93-31.42c8.338-34.544,36.675-61.512,71.93-67.844
	c0.648-0.125,1.296-0.23,1.943-0.334c0.188-0.031,0.376-0.063,0.564-0.084c0.648-0.104,1.296-0.188,1.943-0.272
	c0.742-0.094,1.473-0.178,2.215-0.261c0.031,0,0.073-0.01,0.115-0.01c0.596-0.063,1.191-0.115,1.776-0.157
	c0.282-0.031,0.554-0.052,0.836-0.063c0.355-0.031,0.711-0.052,1.066-0.073c0.47-0.031,0.94-0.052,1.411-0.073
	c0.575-0.031,1.149-0.052,1.735-0.063c0.763-0.021,1.536-0.031,2.309-0.031h17.126l6.562,13.009h0.01L256,466.586l25.589-50.645
	l6.572-13.009h17.126c0.773,0,1.546,0.01,2.309,0.031c0.585,0.01,1.16,0.031,1.734,0.063c0.47,0.021,0.94,0.042,1.411,0.073
	c0.355,0.021,0.711,0.042,1.066,0.073c0.282,0.01,0.554,0.031,0.836,0.063c0.585,0.042,1.181,0.094,1.776,0.157
	c0.042,0,0.084,0.01,0.115,0.01c0.742,0.084,1.473,0.167,2.215,0.261c0.648,0.084,1.296,0.167,1.943,0.272
	c0.188,0.021,0.376,0.052,0.564,0.084c0.648,0.104,1.296,0.209,1.943,0.334C356.455,410.684,384.793,437.652,393.13,472.197z"/>
<path style="fill:#29292B;" d="M393.13,472.197c-21.932,13.949-46.132,24.649-71.93,31.42c-20.814,5.465-42.663,8.38-65.201,8.38
	v-45.411l25.589-50.645l6.572-13.009h17.126c0.773,0,1.546,0.01,2.309,0.031c0.585,0.01,1.16,0.031,1.734,0.063
	c0.47,0.021,0.94,0.042,1.411,0.073c0.355,0.021,0.711,0.042,1.066,0.073c0.282,0.01,0.554,0.031,0.836,0.063
	c0.585,0.042,1.181,0.094,1.776,0.157c0.042,0,0.084,0.01,0.115,0.01c0.742,0.084,1.473,0.167,2.215,0.261
	c0.648,0.084,1.296,0.167,1.943,0.272c0.188,0.021,0.376,0.052,0.564,0.084c0.648,0.104,1.296,0.209,1.943,0.334
	C356.455,410.684,384.793,437.652,393.13,472.197z"/>
<rect x="220.063" y="371.717" style="fill:#FFDBA9;" width="71.865" height="97.707"/>
<rect x="255.996" y="371.717" style="fill:#FFC473;" width="35.936" height="97.707"/>
<path style="fill:#FFFFFF;" d="M321.201,404.343v99.274c-20.814,5.465-42.663,8.38-65.201,8.38s-44.387-2.915-65.201-8.38v-99.274
	c0.648-0.115,1.296-0.23,1.943-0.324c0.188-0.031,0.376-0.063,0.564-0.084c0.648-0.104,1.296-0.188,1.943-0.272
	c0.742-0.094,1.473-0.178,2.215-0.261c0.031,0,0.073-0.01,0.115-0.01c0.596-0.063,1.191-0.115,1.776-0.157
	c0.282-0.031,0.554-0.052,0.836-0.063c0.355-0.031,0.711-0.052,1.066-0.073c0.47-0.031,0.94-0.052,1.411-0.073
	c0.575-0.031,1.149-0.052,1.735-0.063c0.763-0.021,1.536-0.031,2.309-0.031h17.126l6.562,13.009h0.01l25.589,50.645l25.589-50.645
	l6.572-13.009h17.126c0.773,0,1.546,0.01,2.309,0.031c0.585,0.01,1.16,0.031,1.735,0.063c0.47,0.021,0.94,0.042,1.411,0.073
	c0.355,0.021,0.711,0.042,1.066,0.073c0.282,0.01,0.554,0.031,0.836,0.063c0.585,0.042,1.181,0.094,1.776,0.157
	c0.042,0,0.084,0.01,0.115,0.01c0.742,0.084,1.473,0.167,2.215,0.261c0.648,0.084,1.296,0.167,1.943,0.272
	c0.188,0.021,0.376,0.052,0.564,0.084C319.905,404.113,320.553,404.227,321.201,404.343z"/>
<path style="fill:#D8D8DA;" d="M321.201,404.343v99.274c-20.814,5.465-42.663,8.38-65.201,8.38v-45.411l25.589-50.645l6.572-13.009
	h17.126c0.773,0,1.546,0.01,2.309,0.031c0.585,0.01,1.16,0.031,1.735,0.063c0.47,0.021,0.94,0.042,1.411,0.073
	c0.355,0.021,0.711,0.042,1.066,0.073c0.282,0.01,0.554,0.031,0.836,0.063c0.585,0.042,1.181,0.094,1.776,0.157
	c0.042,0,0.084,0.01,0.115,0.01c0.742,0.084,1.473,0.167,2.215,0.261c0.648,0.084,1.296,0.167,1.943,0.272
	c0.188,0.021,0.376,0.052,0.564,0.084C319.905,404.113,320.553,404.227,321.201,404.343z"/>
<path style="fill:#FFDBA9;" d="M354.083,253.106c-4.095-60.283-55.506-94.498-98.083-94.498c-42.576,0-93.987,34.215-98.083,94.498
	c-11.017,2.064-18.836,12.36-17.609,23.681l1.898,17.516c1.287,11.883,12.063,20.554,23.947,19.267l2.047-0.221
	c24.327,63.323,63.584,79.626,87.803,83.329c24.217-3.704,63.476-20.006,87.803-83.329l2.047,0.221
	c11.883,1.287,22.659-7.383,23.947-19.267l1.898-17.516C372.919,265.466,365.1,255.17,354.083,253.106z"/>
<path style="fill:#FFC473;" d="M256.001,396.679c24.217-3.704,63.476-20.006,87.803-83.329l2.047,0.222
	c11.883,1.287,22.659-7.383,23.947-19.267l1.898-17.517c1.226-11.321-6.592-21.618-17.609-23.681
	c-4.095-60.283-55.506-94.498-98.083-94.498c-0.001,0-0.002,0-0.003,0v238.071C255.998,396.679,255.999,396.679,256.001,396.679z"/>
<path style="fill:#57555C;" d="M337.128,205.826v99.876H315.43c-10.69,0-19.356,8.666-19.356,19.356v13.718h-80.096v-13.718
	c0-10.69-8.666-19.356-19.356-19.356h-21.698v-99.876h-17.008v152.472h17.008v25.153h36.624v17.711
	c0,11.339,9.193,20.532,20.532,20.531l47.841-0.003c11.338-0.001,20.53-9.193,20.53-20.531v-17.708h36.677v-25.153h17.008V205.826
	H337.128z"/>
<path style="fill:#3C3B41;" d="M337.128,205.826v99.876H315.43c-10.69,0-19.356,8.666-19.356,19.356v13.718h-40.078v82.916
	l23.925-0.001c11.338-0.001,20.53-9.193,20.53-20.531v-17.708h36.677V358.3h17.008V205.826H337.128z"/>
<rect x="170.65" y="40.312" style="fill:#57555C;" width="170.703" height="178.059"/>
<rect x="255.996" y="40.312" style="fill:#3C3B41;" width="85.356" height="178.059"/>
<rect x="190.534" y="258.671" style="fill:#FFC473;" width="50.572" height="21.913"/>
<polygon style="fill:#FFA91F;" points="255.997,258.666 255.997,328.317 277.91,328.317 277.91,280.579 325.647,280.579 
	325.647,258.666 "/>
<rect x="234.148" y="351.979" style="fill:#FFC473;" width="43.701" height="12.643"/>
<rect x="255.996" y="351.979" style="fill:#FFA91F;" width="21.854" height="12.643"/>
<rect x="121.593" y="202.216" style="fill:#3C3B41;" width="268.817" height="23.377"/>
<rect x="255.996" y="202.206" style="fill:#29292B;" width="134.414" height="23.384"/>
<rect x="170.65" y="150.338" style="fill:#3C3B41;" width="170.703" height="22.186"/>
<rect x="255.996" y="150.327" style="fill:#29292B;" width="85.356" height="22.193"/>
<g>
</g>
<g>
</g>
<g>
</g>
<g>
</g>
<g>
</g>
<g>
</g>
<g>
</g>
<g>
</g>
<g>
</g>
<g>
</g>
<g>
</g>
<g>
</g>
<g>
</g>
<g>
</g>
<g>
</g>
</svg>
